<svg id="Layer_2" data-name="Layer 2" xmlns="http://www.w3.org/2000/svg" viewBox="0 0 74.09 66.13"><title>PClogoviolet</title><path d="M21.75,10.58A9.46,9.46,0,0,1,18,18.26a13.17,13.17,0,0,1-4.23,2.15,18.53,18.53,0,0,1-5.49.77H4.58V36.12H2.25V.82H9.51a17.3,17.3,0,0,1,4.72.64,11.83,11.83,0,0,1,3.89,1.88,9.33,9.33,0,0,1,2.65,3.05A8.67,8.67,0,0,1,21.75,10.58Zm-2.33.05a6.89,6.89,0,0,0-.87-3.55,7.72,7.72,0,0,0-2.28-2.44,9.67,9.67,0,0,0-3.21-1.38,16.29,16.29,0,0,0-3.71-.42H4.58V19.16H8.45a16.57,16.57,0,0,0,4.4-.55A10.44,10.44,0,0,0,16.32,17a7.71,7.71,0,0,0,2.28-2.67A7.83,7.83,0,0,0,19.42,10.63Z" transform="translate(-2.1 -0.82)" style="fill:#5d2e87"/><path d="M64.29,5.58a18.37,18.37,0,0,0-3.58-1A24.33,24.33,0,0,0,57,4.34a15.84,15.84,0,0,0-5.88,1,12.3,12.3,0,0,0-4.44,3A12.72,12.72,0,0,0,43.89,13a18.27,18.27,0,0,0-1,6.09,18.28,18.28,0,0,0,1,6.12,12.76,12.76,0,0,0,2.78,4.63,12.32,12.32,0,0,0,4.44,3,16,16,0,0,0,5.88,1,24.34,24.34,0,0,0,3.72-.29,17.06,17.06,0,0,0,3.58-1l.38,1.73a15.13,15.13,0,0,1-3.62,1,27,27,0,0,1-4.2.33,17.77,17.77,0,0,1-6.77-1.22A14.23,14.23,0,0,1,45,31a14.61,14.61,0,0,1-3.15-5.23,20,20,0,0,1-1.08-6.7,19.73,19.73,0,0,1,1.08-6.67A14.79,14.79,0,0,1,45,7.17a14,14,0,0,1,5-3.43,17.57,17.57,0,0,1,6.77-1.23,25.86,25.86,0,0,1,4.2.34,14.68,14.68,0,0,1,3.62,1Z" transform="translate(-2.1 -0.82)" style="fill:#5d2e87"/><path d="M47.36,39.75c.5-2.34,0-5.1-2.25-6.39-1.26-.74-2.62-.49-4-.69a3.85,3.85,0,0,1-2.51-1.6c-1.61-2.17-1.82-5.14-1.67-7.74A44.06,44.06,0,0,1,39,13.44c1.08-3.64,2.3-7.25,3-11a.77.77,0,0,0-.73-1C39.74,1.44,38.8,3.17,38,4.18c-.32.38-.84,1.09-1.42,1.05s-1.05-.65-1.44-1a3,3,0,0,0-1.82-.82A2.56,2.56,0,0,0,31.35,4.5,15.72,15.72,0,0,0,30,6.81a5.08,5.08,0,0,1-.62,1,2.79,2.79,0,0,1-1.29.74c-3.69,1.32-3.59,6-5.37,8.86a29.59,29.59,0,0,1-2.31,2.82A23.07,23.07,0,0,0,18.46,23a52,52,0,0,0-3.22,6.47,7,7,0,0,0-.67,3.62,3.72,3.72,0,0,0,1.95,2.54A12.22,12.22,0,0,0,24,37.38l-.53-1.28a5.25,5.25,0,0,1-5.78,1.73c-2.32-.77-4.1-2.67-6.49-3.32a3.31,3.31,0,0,0-3.53,1.11,24.18,24.18,0,0,0-2.32,3.27,17,17,0,0,0-1.73,3.59,9.05,9.05,0,0,0-.31,3.87,8.58,8.58,0,0,1-.66,3.87,6.78,6.78,0,0,0-.41,3.61,5.84,5.84,0,0,0,1.63,2.59c.85.88,1.54,1.86,2.35,2.76a7.72,7.72,0,0,0,3.17,2c1.38.51,2.78,1,4.16,1.47s2.92,1,4.38,1.54a6,6,0,0,0,4.06.1,7,7,0,0,1,2.12-.47,13.39,13.39,0,0,0,2.37,0,4.1,4.1,0,0,0,2.72-2.1c.72-1.38.33-2.72-.07-4.13l-1.48-5.15-.92.92c2,.7,3.47,2.32,4.92,3.78a14.7,14.7,0,0,0,5,3.69,6.25,6.25,0,0,0,2.93.38c1.13-.12,2.17-.75,3.29-.81.94-.05,1.61.73,2.19,1.36a6.73,6.73,0,0,0,2.19,1.75,4.16,4.16,0,0,0,2.13.12,3,3,0,0,1,2.1.63c.72.47,1.44.93,2.19,1.36a4.25,4.25,0,0,0,2.14.75,3.39,3.39,0,0,0,1.7-.72c.65-.4,1.24.15,1.79.54a3.51,3.51,0,0,0,2.56.79,6.43,6.43,0,0,0,2.47-1.08,17.88,17.88,0,0,1,2.73-1.68c1.25-.53,2.56-.2,3.85-.09a5.37,5.37,0,0,0,5.19-2.54.76.76,0,0,0-.45-1.1c-3.54-1.15-7.06-2.34-10.56-3.6-2.44-.87-4.92-1.55-6.89-3.3-1-.94-1.95-2-2.93-3a15,15,0,0,0-3.86-2.76,37.85,37.85,0,0,1-4.24-2.32c-.71-.49-1.4-1-2.08-1.54L44,43.05c-.21-.18-.58-.38-.56-.7a.77.77,0,0,1,.46-.57c.22,0,.35.12.55.25a3.69,3.69,0,0,0,1.78.85,1.25,1.25,0,0,0,1.4-1,16.58,16.58,0,0,0-.23-2.31.75.75,0,0,0-1.5,0,6,6,0,0,0,.11,1.2,7.8,7.8,0,0,0,.15.83l.21-.19a.46.46,0,0,1-.21,0c-.07-.05-.19-.1-.26-.14-.33-.19-.63-.43-1-.64a2,2,0,0,0-2.88,1.17c-.59,1.68,1.22,2.68,2.33,3.54a26.9,26.9,0,0,0,4.52,3,20.86,20.86,0,0,1,4.3,2.47c1.14,1,2.08,2.13,3.15,3.17a14.16,14.16,0,0,0,3,2.37A28.69,28.69,0,0,0,63,57.67q6.12,2.2,12.29,4.21l-.45-1.1c-1,1.69-2.72,1.95-4.55,1.73a7.38,7.38,0,0,0-3.37.13A10.79,10.79,0,0,0,64.42,64a10.84,10.84,0,0,1-2.27,1.34,2.26,2.26,0,0,1-2.26-.59A3.11,3.11,0,0,0,57.55,64c-.59.12-1,.55-1.49.78s-1.18-.21-1.65-.47c-.7-.41-1.39-.85-2.07-1.29a5,5,0,0,0-2.24-.93c-.66-.05-1.32.21-2,.11-.84-.13-1.47-1-2-1.53A6,6,0,0,0,44,59a4.33,4.33,0,0,0-2.88.2,5.9,5.9,0,0,1-3.08.39c-2.25-.44-3.95-2.17-5.5-3.74a15.11,15.11,0,0,0-5.44-4,.75.75,0,0,0-.92.92l1.16,4.07c.19.67.39,1.34.58,2A2.88,2.88,0,0,1,28,60.61a2.6,2.6,0,0,1-2,1.71,12.82,12.82,0,0,1-2,0,6.48,6.48,0,0,0-1.91.32,10.05,10.05,0,0,1-1.62.48,4.39,4.39,0,0,1-2-.3c-1.31-.44-2.61-.92-3.9-1.37l-3.94-1.39a7.8,7.8,0,0,1-3.22-1.72c-.78-.8-1.38-1.77-2.17-2.58a5.5,5.5,0,0,1-1.61-2.24,5.92,5.92,0,0,1,.52-3.3,8.85,8.85,0,0,0,.63-3.44,9.57,9.57,0,0,1,.09-3.5,13.52,13.52,0,0,1,1.53-3.35,24.41,24.41,0,0,1,2.18-3.17,2,2,0,0,1,1.52-.91,4.42,4.42,0,0,1,1.66.49c2.2,1,4,2.81,6.51,3.19a6.7,6.7,0,0,0,6.18-2.37c.38-.45.17-1.34-.53-1.28a11,11,0,0,1-6.15-1.19c-.81-.44-1.69-.94-1.79-1.95a6.48,6.48,0,0,1,.76-3.06,54.88,54.88,0,0,1,3-6A21.84,21.84,0,0,1,21.66,21c.7-.84,1.47-1.6,2.09-2.5a19,19,0,0,0,2.07-4.87c.49-1.4,1.07-3.07,2.57-3.64A4.61,4.61,0,0,0,30.62,8.6a14.15,14.15,0,0,0,1.25-2.13c.26-.49.65-1.38,1.27-1.51.44-.1.86.34,1.17.6a4.55,4.55,0,0,0,1.82,1.12A2.52,2.52,0,0,0,38.28,6a13,13,0,0,0,1.57-1.82c.33-.4.85-1.2,1.43-1.18l-.72-1c-1.26,6.58-4.1,12.77-5,19.44-.57,4.44-.12,12.27,5.82,12.71,1.42.11,2.8,0,3.78,1.19a4.77,4.77,0,0,1,.7,4c-.2.94,1.25,1.34,1.45.39Z" transform="translate(-2.1 -0.82)" style="fill:#5d2e87"/><path d="M31.88,24.54a5,5,0,0,0-.29,4.35.52.52,0,0,0,.61.35.51.51,0,0,0,.35-.62,4,4,0,0,1,.2-3.57.5.5,0,0,0-.87-.51Z" transform="translate(-2.1 -0.82)" style="fill:#5d2e87"/><path d="M35.76,33.84a2,2,0,0,0-.5.91c-.1.3-.18.61-.51.72a2.89,2.89,0,0,1-.88,0,3.48,3.48,0,0,0-1.16.18,1.71,1.71,0,0,1-1.13.14,5.9,5.9,0,0,0-1.1-.36A4,4,0,0,0,28,36c-.57.31-.06,1.18.5.87a2.73,2.73,0,0,1,2.37-.26,2.45,2.45,0,0,0,1.16.28,9.83,9.83,0,0,0,1.32-.34c.67-.15,1.36.11,2-.23a1.67,1.67,0,0,0,.71-.82c.13-.3.16-.7.41-.93.48-.43-.23-1.13-.71-.71Z" transform="translate(-2.1 -0.82)" style="fill:#5d2e87"/><path d="M39.84,47.72A4.17,4.17,0,0,1,42.2,49a7.75,7.75,0,0,0,2.33,1.52c2,.74,4.25.34,6.13,1.36.57.3,1.07-.56.51-.87-2-1.07-4.31-.67-6.37-1.45-1.84-.7-2.86-2.73-5-2.85-.64,0-.64,1,0,1Z" transform="translate(-2.1 -0.82)" style="fill:#5d2e87"/><path d="M18,40.7a6.82,6.82,0,0,0-4.64,1.2.91.91,0,0,0-.11,1.5,1.26,1.26,0,0,0,.75.24c.21,0,.59-.17.77-.09s.11,0,0,0l-.11.18a3.57,3.57,0,0,1-.3.38,7,7,0,0,1-.66.67c-.51.45-1.07.84-1.62,1.25A7,7,0,0,0,9.56,49a.51.51,0,0,0,.48.63,6.52,6.52,0,0,0,3.46-1l-.74-.3a2,2,0,0,1,0,1.76.51.51,0,0,0,.44.76l1.8-.06.8,0a2.06,2.06,0,0,1,.43,0c.11,0,.17.11.23,0a.51.51,0,0,0,.22.84,8.27,8.27,0,0,0,3.83-.19.5.5,0,0,0-.27-1,7.09,7.09,0,0,1-3.3.18l.23.84a1.06,1.06,0,0,0-.66-1.71,6.93,6.93,0,0,0-1.51,0l-1.8.06.43.75A3,3,0,0,0,13.73,48a.52.52,0,0,0-.74-.3,5.42,5.42,0,0,1-3,.9l.49.63c.92-2.27,3.69-3,5-5,.3-.48.41-1.1-.13-1.46A1.84,1.84,0,0,0,14,42.64a.42.42,0,0,1-.16,0c.06.11.12.12.19,0a3.26,3.26,0,0,0,.54-.31A6,6,0,0,1,18,41.7c.64,0,.63-1,0-1Z" transform="translate(-2.1 -0.82)" style="fill:#5d2e87"/><path d="M35.92,46.9c-1,.07-1.6.81-2.47,1.14a7.44,7.44,0,0,1-3,.21c-2-.11-4.21-.51-6.09.36-.59.27-.08,1.13.5.86a6.28,6.28,0,0,1,3-.36l3,.16a7.81,7.81,0,0,0,2.64-.2,5,5,0,0,0,1.14-.55,2.94,2.94,0,0,1,1.25-.62c.63,0,.64-1,0-1Z" transform="translate(-2.1 -0.82)" style="fill:#5d2e87"/><path d="M44.64,38.76a.75.75,0,0,0,0-1.5.75.75,0,0,0,0,1.5Z" transform="translate(-2.1 -0.82)" style="fill:#5d2e87"/></svg>